<?xml version="1.0" encoding="utf-8"?>
<!-- Generator: Adobe Illustrator 27.1.1, SVG Export Plug-In . SVG Version: 6.00 Build 0)  -->
<svg version="1.1" id="Layer_1" xmlns="http://www.w3.org/2000/svg" xmlns:xlink="http://www.w3.org/1999/xlink" x="0px" y="0px"
	 viewBox="0 0 400 400" style="enable-background:new 0 0 400 400;" xml:space="preserve">
<style type="text/css">
	.st0{fill:#00A38A;}
	.st1{fill:#FFFFFF;}
	.st2{fill:#20201E;}
</style>
<g>
	<path class="st0" d="M108.2,226.3c28.3,28.3,63.6,38.8,93.6,38.8c36.6,0,73.5-14.8,96.4-41.1c22.9-26.3,34.7-59.5,34.7-106.5V1.5
		H217c-47.8,0-78.3,14.6-94.6,25.5c-16.8,11.3-46.6,41.5-52.2,90.5C65.8,156.2,78.5,196.6,108.2,226.3"/>
	<path class="st1" d="M156,123.3c3.8-4.5,5.7-10.8,5.7-18.7c0-7.9-1.9-14-5.6-18.4c-3.7-4.4-9-6.6-15.8-6.6c-4.5,0-8.4,1-11.7,2.9
		c-3.3,2-5.8,4.9-7.7,8.7c-1.8,3.8-2.7,8.3-2.7,13.4c0,5.2,0.8,9.6,2.5,13.5c1.6,3.8,4.1,6.8,7.3,8.9c3.2,2.1,7.1,3.1,11.8,3.1
		C146.8,130.1,152.2,127.9,156,123.3 M131.4,117.6c-2-3.1-3-7.4-3-13c0-5.5,1-9.7,3-12.7c2-3,4.9-4.4,8.8-4.4c3.7,0,6.5,1.5,8.4,4.4
		c1.9,2.9,2.9,7.2,2.9,12.7c0,5.6-1,9.9-3,13c-2,3.1-4.8,4.6-8.6,4.6C136.3,122.3,133.4,120.7,131.4,117.6"/>
	<path class="st1" d="M201.3,127.7c0-0.4,0-0.8,0-1.3c0-1.6-0.5-2.9-1.5-3.8c-1-0.9-2.5-1.3-4.4-1.3h-15.3v-13.3h15.2v-7.7h-15.2
		V88.3h14.1c2.2,0,3.8-0.4,4.7-1.2c0.9-0.8,1.4-2.1,1.4-3.9c0-1.1-0.1-1.9-0.2-2.7h-29.9v48.3h31
		C201.3,128.5,201.3,128.1,201.3,127.7"/>
	<path class="st1" d="M218.1,104.4c0.2,2.5,1.4,5.1,3.5,7.9l10.5,13.7c1.9,2.5,4.5,3.8,7.7,3.8c1.9,0,3.8-0.5,5.7-1.7l-17.8-24.3
		l15.8-21.3c-0.7-0.7-1.5-1.2-2.5-1.6c-1-0.4-2.1-0.6-3.3-0.6c-1.3,0-2.5,0.3-3.6,0.9c-1.1,0.6-2.1,1.6-3.2,2.9l-9.8,13
		c-1,1.2-1.7,2.4-2.1,3.4c-0.5,1-0.7,2-0.8,3V85.9c0-3.8-2.1-5.6-6.4-5.6c-0.8,0-1.9,0.1-3.4,0.4v48.2h9.8"/>
	<path class="st1" d="M284.4,86.2c-3.7-4.4-9-6.6-15.8-6.6c-4.5,0-8.4,1-11.7,3c-3.3,2-5.9,4.9-7.7,8.7c-1.8,3.8-2.7,8.3-2.7,13.4
		c0,5.1,0.8,9.6,2.5,13.5c1.7,3.8,4.1,6.8,7.3,8.9c3.2,2.1,7.1,3.1,11.8,3.1c7,0,12.4-2.3,16.2-6.8c3.8-4.5,5.7-10.8,5.7-18.8
		C290,96.7,288.1,90.6,284.4,86.2 M276.9,117.6c-2,3.1-4.8,4.6-8.6,4.6c-3.7,0-6.6-1.5-8.6-4.7c-2-3.1-3-7.4-3-12.9
		c0-5.5,1-9.7,3-12.7c2-3,4.9-4.4,8.8-4.4c3.7,0,6.5,1.5,8.4,4.4c1.9,3,2.9,7.2,2.9,12.7C279.9,110.2,278.9,114.6,276.9,117.6"/>
	<path class="st1" d="M272.8,146.1c-6.7,0-12.1,5.5-12.1,12.2c0,6.7,5.4,12.2,12.1,12.2c6.7,0,12.1-5.5,12.1-12.2
		C284.9,151.6,279.5,146.1,272.8,146.1 M272.8,167.7c-5.1,0-9.3-4.2-9.3-9.4c0-5.2,4.2-9.4,9.3-9.4c5.1,0,9.3,4.2,9.3,9.4
		C282.1,163.5,278,167.7,272.8,167.7"/>
	<path class="st1" d="M275.8,158.6c0.3-0.2,0.5-0.4,0.7-0.7c0.2-0.3,0.4-0.6,0.5-1c0.1-0.4,0.2-0.8,0.2-1.3c0-1.2-0.4-2.1-1.2-2.7
		c-0.8-0.6-2.1-0.9-3.8-0.9c-0.4,0-0.9,0-1.5,0c-0.6,0-1.1,0.1-1.7,0.1v11.9h2.5v-4.5h1l2,3.5c0.2,0.4,0.5,0.7,0.8,0.9
		c0.3,0.2,0.7,0.3,1.1,0.3c0.2,0,0.5,0,0.7-0.1c0.3-0.1,0.5-0.1,0.7-0.2l-3-4.9C275.3,158.9,275.6,158.8,275.8,158.6 M274.1,157.4
		c-0.4,0.3-1,0.5-1.7,0.5h-0.8v-4.1c0.1,0,0.2,0,0.4,0c0.2,0,0.3,0,0.6,0c0.7,0,1.2,0.1,1.6,0.5c0.4,0.3,0.6,0.8,0.6,1.6
		S274.5,157.1,274.1,157.4"/>
	<path class="st1" d="M142.6,146.5c-1.9,0-3.3,0.5-4.4,1.4c-1.1,1-1.7,2.2-1.7,3.8c0,1.1,0.1,2,0.2,2.9h15v40.3h9.9v-40.3h9
		c1.9,0,3.3-0.4,4.3-1.3c1-0.9,1.5-2.1,1.5-3.6c0-1.1-0.1-2.1-0.2-3.1"/>
	<path class="st1" d="M207.5,187.1h-15.3v-13.3h15.2v-7.7h-15.2v-11.9h14.1c2.2,0,3.8-0.4,4.7-1.1c0.9-0.8,1.4-2.1,1.4-3.9
		c0-1.1-0.1-1.9-0.2-2.7h-29.9v48.3h31c0-0.4,0.1-0.8,0.1-1.2c0-0.4,0-0.8,0-1.3c0-1.6-0.5-2.9-1.5-3.8
		C210.9,187.6,209.4,187.1,207.5,187.1"/>
	<path class="st1" d="M257.3,147.6c-1.8-1-3.6-1.4-5.2-1.4c-1.5,0-2.8,0.3-3.8,0.9c-1,0.6-1.9,1.8-2.9,3.4l-7.1,12.3l-7-13.1
		c-1.2-2.4-3.1-3.5-5.7-3.5c-1.8,0-3.8,0.5-6.2,1.6l12.6,22.9l-14.2,24.1h10.8l9.2-15.9l7.4,12.3c1,1.6,2,2.8,3.1,3.4
		c1.1,0.6,2.4,1,4.1,1c1.8,0,3.7-0.4,5.7-1.1l-14-24.2"/>
	<path class="st2" d="M61.9,336c1.6,1.2,3,2.1,4.4,2.6c1.4,0.5,2.8,0.8,4.2,0.8c1.8,0,3.2-0.4,4.3-1.2c1.1-0.8,1.6-2,1.6-3.5
		c0-1.2-0.4-2.2-1-2.9c-0.6-0.7-1.5-1.3-2.5-1.8c-1-0.5-2.2-0.9-3.4-1.3c-1.1-0.4-2.2-0.8-3.4-1.2c-1.1-0.5-2.1-1.1-3.1-1.8
		c-0.9-0.7-1.7-1.7-2.3-2.8c-0.6-1.1-0.9-2.6-0.9-4.3c0-2.1,0.5-4,1.6-5.5c1.1-1.5,2.6-2.7,4.5-3.5c1.9-0.8,4-1.2,6.4-1.2
		c1.8,0,3.6,0.2,5.3,0.7c1.7,0.5,3,1,3.8,1.7c1,0.6,1.5,1.3,1.5,2.4c0,0.5-0.2,1-0.6,1.8c-0.4,0.7-0.9,1.4-1.5,2.1
		c-1.1-0.9-2.3-1.6-3.7-2.1c-1.4-0.5-2.8-0.8-4.1-0.8c-1.7,0-3.1,0.3-4.1,1c-1,0.7-1.5,1.7-1.5,3c0,0.7,0.2,1.3,0.5,1.9
		c0.3,0.6,0.9,1.1,1.7,1.6c0.8,0.5,2.2,1.1,4.3,1.9c1.1,0.4,2.3,0.9,3.4,1.4c1.2,0.5,2.2,1.1,3.1,1.9c0.9,0.8,1.7,1.7,2.3,2.8
		c0.6,1.1,0.9,2.6,0.9,4.3c0,3.6-1.2,6.4-3.6,8.4c-2.4,2-5.6,3-9.6,3c-1.9,0-3.7-0.2-5.3-0.6c-1.7-0.4-3-0.9-4.2-1.6
		c-1-0.7-1.5-1.4-1.5-2.3C59.6,339.5,60.4,338,61.9,336"/>
	<path class="st2" d="M100.4,314.8h-11c-0.1-0.6-0.2-1.3-0.2-2.1c0-1.2,0.4-2.1,1.2-2.8c0.8-0.7,1.9-1,3.3-1h24.7
		c0.1,0.7,0.2,1.5,0.2,2.3c0,1.1-0.4,2-1.1,2.6c-0.8,0.6-1.8,1-3.2,1h-6.6v29.3h-7.2"/>
	<path class="st2" d="M145.1,344.1l-3-8.6h-12.1l-2.9,8.6h-7.1l12.2-34.7c1.1-0.5,2.5-0.7,4.2-0.7c2.6,0,4.2,1.1,4.9,3.3l11.3,32.1
		 M136.1,315.3l-4.8,15h9.4L136.1,315.3z"/>
	<path class="st2" d="M189.2,344.1h-6.1l-15-23.1v23.1h-6.9v-35.1c0.9-0.2,2-0.3,3.2-0.3c1,0,1.9,0.2,2.5,0.5c0.7,0.3,1.3,1,1.8,1.9
		l13.5,22.1V309c1.1-0.2,1.8-0.3,2.4-0.3c3,0,4.5,1.4,4.5,4.1"/>
	<path class="st2" d="M230.1,326c0,3.7-0.7,7-2,9.7c-1.4,2.8-3.3,4.9-5.8,6.3c-2.5,1.4-5.5,2.2-8.9,2.2h-11.2v-34.9
		c3.3-0.4,6.5-0.6,9.9-0.6c6,0,10.5,1.5,13.5,4.4C228.6,315.9,230.1,320.2,230.1,326 M222.8,326.1c0-4-0.8-7-2.5-8.9
		c-1.7-1.9-4.2-2.9-7.7-2.9c-1,0-2,0.1-3.1,0.2v24.2h2.9c3.6,0,6.3-1,7.9-3C221.9,333.6,222.8,330.5,222.8,326.1"/>
	<path class="st2" d="M261.1,344.1l-3-8.6H246l-2.9,8.6H236l12.2-34.7c1.1-0.5,2.5-0.7,4.2-0.7c2.6,0,4.2,1.1,4.9,3.3l11.3,32.1
		 M252.2,315.3l-4.8,15h9.4L252.2,315.3z"/>
	<path class="st2" d="M301,319c0,2.5-0.6,4.6-1.8,6.4c-1.2,1.8-2.8,3.1-4.9,3.8l8.7,14.5c-1.4,0.6-2.8,0.9-4.2,0.9
		c-1.3,0-2.4-0.3-3.3-0.8c-0.9-0.6-1.7-1.5-2.4-2.7l-6-10.2h-2.9v13.2H277v-35c3-0.3,6.1-0.5,9.3-0.5c5,0,8.7,0.9,11.1,2.5
		C299.8,312.9,301,315.5,301,319 M293.4,319.7c0-2-0.5-3.5-1.6-4.5c-1.1-1-2.7-1.5-4.9-1.5c-0.6,0-1.2,0-1.6,0.1
		c-0.5,0-0.8,0.1-1.2,0.1V326h2.5c2.2,0,3.8-0.5,5-1.6C292.8,323.3,293.4,321.7,293.4,319.7"/>
	<path class="st2" d="M340.4,326c0,3.7-0.7,7-2,9.7c-1.4,2.8-3.3,4.9-5.8,6.3c-2.5,1.4-5.5,2.2-8.9,2.2h-11.2v-34.9
		c3.3-0.4,6.5-0.6,9.9-0.6c6,0,10.5,1.5,13.5,4.4C338.9,315.9,340.4,320.2,340.4,326 M333,326.1c0-4-0.8-7-2.5-8.9
		c-1.7-1.9-4.2-2.9-7.7-2.9c-1,0-2,0.1-3.1,0.2v24.2h2.9c3.6,0,6.3-1,7.9-3C332.2,333.6,333,330.5,333,326.1"/>
	<path class="st2" d="M167,396.8v-26.5l-6.9,3.5c-1.4-1.9-2.2-3.3-2.2-4.3c0-1,0.6-1.8,1.7-2.4l7.4-3.9c0.7-0.4,1.4-0.7,2-0.9
		c0.6-0.3,1.3-0.4,2-0.4c1.1,0,2.1,0.3,2.9,0.8v34.1"/>
	<path class="st2" d="M211.4,379.7c0,6-1.1,10.4-3.3,13.4c-2.2,3-5.4,4.5-9.6,4.5c-4.4,0-7.7-1.5-9.8-4.5c-2.2-3-3.2-7.5-3.2-13.5
		c0-5.8,1.1-10.2,3.4-13.4c2.3-3.1,5.5-4.7,9.8-4.7c4.3,0,7.5,1.5,9.6,4.5C210.3,369,211.4,373.6,211.4,379.7 M204.3,379.7
		c0-4.2-0.5-7.4-1.4-9.4c-0.9-2-2.4-3-4.4-3c-2,0-3.5,1-4.5,3c-0.9,2-1.4,5.2-1.4,9.4c0,4.2,0.5,7.3,1.4,9.3c0.9,2,2.4,3,4.5,3
		c2,0,3.4-1,4.4-3C203.8,387,204.3,383.9,204.3,379.7"/>
	<path class="st2" d="M246.5,379.7c0,6-1.1,10.4-3.2,13.4c-2.2,3-5.4,4.5-9.7,4.5c-4.4,0-7.6-1.5-9.8-4.5c-2.2-3-3.2-7.5-3.2-13.5
		c0-5.8,1.1-10.2,3.4-13.4c2.3-3.1,5.5-4.7,9.8-4.7c4.3,0,7.5,1.5,9.6,4.5C245.5,369,246.5,373.6,246.5,379.7 M239.4,379.7
		c0-4.2-0.5-7.4-1.4-9.4c-0.9-2-2.4-3-4.4-3c-2,0-3.5,1-4.5,3c-1,2-1.4,5.2-1.4,9.4c0,4.2,0.5,7.3,1.4,9.3c0.9,2,2.4,3,4.5,3
		c2,0,3.4-1,4.4-3C239,387,239.4,383.9,239.4,379.7"/>
</g>
</svg>
