<svg xmlns="http://www.w3.org/2000/svg" xmlns:xlink="http://www.w3.org/1999/xlink" width="101.267" height="60.782" viewBox="0 0 101.267 60.782">
  <defs>
    <linearGradient id="linear-gradient" x1="0.5" y1="-0.645" x2="0.5" y2="1" gradientUnits="objectBoundingBox">
      <stop offset="0" stop-color="#8daf9e"/>
      <stop offset="1" stop-color="#84706a"/>
    </linearGradient>
  </defs>
  <path id="Icon_awesome-handshake" data-name="Icon awesome-handshake" d="M68.783,4.5H55.191a5.061,5.061,0,0,0-3.418,1.329L36.219,20.07c-.016.016-.032.047-.047.063a6.294,6.294,0,0,0-.332,8.861,6.6,6.6,0,0,0,8.877.427c.016-.016.047-.016.063-.032L57.422,17.807a2.531,2.531,0,1,1,3.418,3.734l-4.13,3.782,23.038,18.7A11.4,11.4,0,0,1,81,45.244V14.627L72.358,5.987A5.027,5.027,0,0,0,68.783,4.5ZM86.077,14.658V50.086a5.058,5.058,0,0,0,5.063,5.063h10.127V14.658Zm7.6,35.428A2.532,2.532,0,1,1,96.2,47.554,2.539,2.539,0,0,1,93.672,50.086ZM0,55.134H10.127A5.058,5.058,0,0,0,15.19,50.07V14.658H0ZM7.6,45.023a2.532,2.532,0,1,1-2.532,2.532A2.539,2.539,0,0,1,7.6,45.023Zm68.972,2.943L52.944,28.788,48.2,33.14A11.389,11.389,0,0,1,32.8,16.351L45.744,4.5H32.485a5.054,5.054,0,0,0-3.576,1.487l-8.655,8.639V50.054h2.9l14.32,12.959A10.125,10.125,0,0,0,51.71,61.542l.032-.032,2.832,2.453a5.88,5.88,0,0,0,8.275-.854L67.817,57l.854.7a5.055,5.055,0,0,0,7.12-.744L77.3,55.1a5.072,5.072,0,0,0-.728-7.136Z" transform="translate(0 -4.5)" fill="url(#linear-gradient)"/>
</svg>
