<?xml version="1.0" encoding="utf-8"?>
<!-- Generator: Adobe Illustrator 28.0.0, SVG Export Plug-In . SVG Version: 6.00 Build 0)  -->
<svg version="1.1" id="Layer_1" xmlns="http://www.w3.org/2000/svg" xmlns:xlink="http://www.w3.org/1999/xlink" x="0px" y="0px"
	 viewBox="0 0 694.46 354.32" style="enable-background:new 0 0 694.46 354.32;" xml:space="preserve">
<style type="text/css">
	.st0{fill:#41ABC4;}
	.st1{fill:#3F85C6;}
	.st2{fill:#45BFB6;}
	.st3{opacity:0.7;}
	.st4{fill:#EDEDED;}
	.st5{opacity:0.55;}
	.st6{fill:#5A5B5B;}
	.st7{fill:url(#SVGID_1_);}
	.st8{fill:#27AAE1;}
	.st9{fill:#FFFFFF;}
	.st10{font-family:'Lato-BlackItalic';}
	.st11{font-size:22.271px;}
	.st12{font-size:20px;}
	.st13{fill:#333333;}
	.st14{font-family:'Lato-Regular';}
	.st15{font-size:13px;}
	.st16{font-family:'Lato-Bold';}
	.st17{font-size:12px;}
</style>
<g>
	<g>
		<g>
			<path class="st0" d="M184.82,142.22c-8.25-22.44-24.29-41.11-44.84-52.74l-49.92,87.85L184.82,142.22z"/>
			<path class="st1" d="M184.63,211.96c4.09-10.93,6.32-22.76,6.32-35.12c0-12.17-2.17-23.83-6.14-34.62l-94.76,35.1L184.63,211.96z
				"/>
			<path class="st2" d="M184.63,211.96l-94.58-34.63l49.51,87.11C160.16,252.9,176.28,234.32,184.63,211.96z"/>
		</g>
		
			<ellipse transform="matrix(0.1753 -0.9845 0.9845 0.1753 191.7971 324.8533)" class="st0" cx="289.79" cy="47.95" rx="47.95" ry="47.95"/>
		<g class="st3">
			<circle class="st0" cx="289.79" cy="48.06" r="41.1"/>
		</g>
		<g>
			<g>
				<circle class="st4" cx="289.79" cy="48.06" r="39.49"/>
			</g>
		</g>
		<circle class="st2" cx="289.79" cy="306.37" r="47.95"/>
		<g class="st3">
			
				<ellipse transform="matrix(0.174 -0.9848 0.9848 0.174 -62.4243 538.5327)" class="st2" cx="289.79" cy="306.48" rx="41.1" ry="41.1"/>
		</g>
		<g>
			
				<ellipse transform="matrix(0.1737 -0.9848 0.9848 0.1737 -62.3536 538.64)" class="st4" cx="289.79" cy="306.48" rx="39.49" ry="39.49"/>
		</g>
		
			<ellipse transform="matrix(0.1602 -0.9871 0.9871 0.1602 136.775 515.7665)" class="st1" cx="371.49" cy="177.5" rx="47.95" ry="47.95"/>
		<g class="st3">
			<circle class="st1" cx="371.49" cy="177.61" r="41.1"/>
		</g>
		<g>
			<circle class="st4" cx="371.49" cy="177.61" r="39.49"/>
		</g>
		<g class="st5">
			
				<ellipse transform="matrix(0.7071 -0.7071 0.7071 0.7071 -99.0076 115.6182)" class="st6" cx="90.06" cy="177.32" rx="90.06" ry="90.06"/>
		</g>
		<linearGradient id="SVGID_1_" gradientUnits="userSpaceOnUse" x1="30.6854" y1="104.0097" x2="147.0321" y2="247.668">
			<stop  offset="0.3181" style="stop-color:#FFFFFF"/>
			<stop  offset="0.6108" style="stop-color:#FBFBFB"/>
			<stop  offset="0.7663" style="stop-color:#F2F1F1"/>
			<stop  offset="0.8892" style="stop-color:#E4E5E5"/>
			<stop  offset="0.995" style="stop-color:#D2D5D5"/>
			<stop  offset="1" style="stop-color:#D1D4D4"/>
		</linearGradient>
		<circle class="st7" cx="90.06" cy="177.32" r="90.06"/>
		
			<ellipse transform="matrix(0.7071 -0.7071 0.7071 0.7071 -99.0076 115.6182)" class="st8" cx="90.06" cy="177.32" rx="83.81" ry="83.81"/>
		<g>
			<g>
				<path class="st0" d="M235.12,68.87C235.11,68.87,235.11,68.87,235.12,68.87c-0.01,0-0.64-0.01-1.76-0.02
					c-0.32,0-0.58-0.27-0.58-0.59c0-0.32,0.27-0.58,0.59-0.58c0,0,0,0,0.01,0c1.12,0.01,1.76,0.02,1.76,0.02
					c0.32,0,0.58,0.27,0.58,0.59C235.7,68.61,235.44,68.87,235.12,68.87z"/>
				<path class="st0" d="M182.21,91.37c-0.15,0-0.3-0.06-0.41-0.17c-0.23-0.23-0.23-0.6,0-0.83l2.56-2.58c0.23-0.23,0.6-0.23,0.83,0
					c0.23,0.23,0.23,0.6,0,0.83l-2.56,2.58C182.51,91.31,182.36,91.37,182.21,91.37z M188.17,85.35c-0.15,0-0.3-0.06-0.41-0.17
					c-0.23-0.23-0.23-0.6,0-0.83l2.56-2.58c0.23-0.23,0.6-0.23,0.83,0c0.23,0.23,0.23,0.6,0,0.83l-2.56,2.58
					C188.48,85.29,188.32,85.35,188.17,85.35z M194.14,79.33c-0.15,0-0.3-0.06-0.41-0.17c-0.23-0.23-0.23-0.6,0-0.83l1.95-1.96
					c0.21-0.21,0.42-0.42,0.63-0.62c0.23-0.22,0.61-0.21,0.83,0.02c0.22,0.23,0.21,0.61-0.02,0.83c-0.2,0.19-0.41,0.39-0.61,0.59
					l-1.95,1.96C194.44,79.27,194.29,79.33,194.14,79.33z M200.47,73.73c-0.19,0-0.37-0.09-0.49-0.26
					c-0.18-0.27-0.11-0.63,0.16-0.81c1.02-0.69,2.09-1.33,3.19-1.88c0.29-0.15,0.64-0.03,0.79,0.26c0.15,0.29,0.03,0.64-0.26,0.79
					c-1.05,0.54-2.08,1.14-3.06,1.81C200.7,73.69,200.58,73.73,200.47,73.73z M208.07,70.05c-0.25,0-0.48-0.16-0.56-0.41
					c-0.1-0.31,0.08-0.64,0.38-0.73c1.18-0.37,2.39-0.66,3.6-0.88c0.32-0.06,0.62,0.16,0.68,0.47c0.06,0.32-0.16,0.62-0.47,0.68
					c-1.16,0.21-2.32,0.49-3.45,0.84C208.19,70.05,208.13,70.05,208.07,70.05z M228.52,68.81
					C228.52,68.81,228.51,68.81,228.52,68.81c-1.12-0.01-2.34-0.02-3.63-0.02c-0.32,0-0.58-0.27-0.58-0.59
					c0-0.32,0.26-0.58,0.59-0.58c0,0,0,0,0,0c1.3,0.01,2.52,0.01,3.63,0.02c0.32,0,0.58,0.27,0.58,0.59
					C229.1,68.55,228.84,68.81,228.52,68.81z M220.04,68.77C220.04,68.77,220.04,68.77,220.04,68.77c-1.16,0-2.35,0-3.55,0l-0.08,0
					c0,0,0,0,0,0c-0.32,0-0.58-0.26-0.59-0.58c0-0.32,0.26-0.59,0.58-0.59l0.08,0c1.21,0,2.4,0,3.56,0c0.32,0,0.59,0.26,0.58,0.59
					C220.63,68.51,220.37,68.77,220.04,68.77z"/>
				<path class="st0" d="M177.56,96.06c-0.15,0-0.3-0.06-0.41-0.17c-0.23-0.23-0.23-0.6,0-0.83l1.24-1.25c0.23-0.23,0.6-0.23,0.83,0
					c0.23,0.23,0.23,0.6,0,0.83l-1.24,1.25C177.86,96,177.71,96.06,177.56,96.06z"/>
			</g>
		</g>
		<g>
			<g>
				<path class="st2" d="M232.43,290.24c-0.32,0-0.58-0.26-0.59-0.58c0-0.32,0.26-0.59,0.58-0.59c1.11-0.01,1.76-0.02,1.76-0.02
					c0,0,0,0,0.01,0c0.32,0,0.58,0.26,0.59,0.58c0,0.32-0.26,0.59-0.58,0.59C234.19,290.22,233.54,290.23,232.43,290.24
					C232.43,290.24,232.43,290.24,232.43,290.24z"/>
				<path class="st2" d="M216.49,290.32c-0.26,0-0.52,0-0.78-0.01c-0.32-0.01-0.58-0.28-0.57-0.6c0.01-0.32,0.28-0.58,0.6-0.57
					c0.25,0.01,0.5,0.01,0.75,0.01c0.93,0,1.87,0,2.82,0c0,0,0,0,0,0c0.32,0,0.59,0.26,0.59,0.58c0,0.32-0.26,0.59-0.58,0.59
					C218.36,290.32,217.42,290.32,216.49,290.32z M224.08,290.3c-0.32,0-0.58-0.26-0.59-0.58c0-0.32,0.26-0.59,0.58-0.59
					c1.26-0.01,2.46-0.02,3.58-0.02c0,0,0,0,0,0c0.32,0,0.58,0.26,0.59,0.58c0,0.32-0.26,0.59-0.58,0.59
					C226.55,290.29,225.34,290.29,224.08,290.3C224.08,290.3,224.08,290.3,224.08,290.3z M210.99,289.78c-0.04,0-0.08,0-0.12-0.01
					c-1.19-0.24-2.37-0.55-3.53-0.94c-0.31-0.1-0.47-0.43-0.37-0.74c0.1-0.31,0.43-0.47,0.74-0.37c1.11,0.37,2.25,0.67,3.39,0.9
					c0.32,0.06,0.52,0.37,0.46,0.69C211.51,289.59,211.27,289.78,210.99,289.78z M203.16,286.98c-0.09,0-0.19-0.02-0.27-0.07
					c-1.07-0.57-2.12-1.21-3.11-1.91c-0.27-0.19-0.33-0.55-0.14-0.82c0.19-0.26,0.55-0.33,0.82-0.14c0.96,0.67,1.96,1.29,2.99,1.83
					c0.29,0.15,0.39,0.51,0.24,0.79C203.57,286.87,203.37,286.98,203.16,286.98z M196.44,282.07c-0.15,0-0.3-0.06-0.41-0.17
					c-0.12-0.12-0.24-0.24-0.36-0.36l-2.17-2.19c-0.23-0.23-0.23-0.6,0-0.83c0.23-0.23,0.6-0.23,0.83,0l2.17,2.19
					c0.11,0.12,0.23,0.23,0.35,0.34c0.23,0.23,0.24,0.6,0.01,0.83C196.74,282.01,196.59,282.07,196.44,282.07z M190.56,276.14
					c-0.15,0-0.3-0.06-0.42-0.17l-2.52-2.54c-0.23-0.23-0.23-0.6,0-0.83c0.23-0.23,0.6-0.23,0.83,0l2.52,2.54
					c0.23,0.23,0.23,0.6,0,0.83C190.85,276.09,190.71,276.14,190.56,276.14z M184.68,270.21c-0.15,0-0.3-0.06-0.42-0.17l-2.52-2.54
					c-0.23-0.23-0.23-0.6,0-0.83c0.23-0.23,0.6-0.23,0.83,0l2.52,2.54c0.23,0.23,0.23,0.6,0,0.83
					C184.98,270.16,184.83,270.21,184.68,270.21z"/>
				<path class="st2" d="M178.8,264.28c-0.15,0-0.3-0.06-0.42-0.17l-1.24-1.25c-0.23-0.23-0.23-0.6,0-0.83
					c0.23-0.23,0.6-0.23,0.83,0l1.24,1.25c0.23,0.23,0.23,0.6,0,0.83C179.1,264.22,178.95,264.28,178.8,264.28z"/>
			</g>
		</g>
		<circle class="st0" cx="235.12" cy="68.28" r="2.55"/>
		<circle class="st2" cx="235.12" cy="289.74" r="2.55"/>
		<g>
			<g>
				<g>
					<path class="st1" d="M317.13,177.93h-1.76c-0.32,0-0.59-0.26-0.59-0.59c0-0.32,0.26-0.59,0.59-0.59h1.76
						c0.32,0,0.59,0.26,0.59,0.59C317.72,177.67,317.45,177.93,317.13,177.93z"/>
					<path class="st1" d="M310.8,177.93h-3.43c-0.32,0-0.59-0.26-0.59-0.59c0-0.32,0.26-0.59,0.59-0.59h3.43
						c0.32,0,0.59,0.26,0.59,0.59C311.39,177.67,311.12,177.93,310.8,177.93z M302.8,177.93h-3.43c-0.32,0-0.59-0.26-0.59-0.59
						c0-0.32,0.26-0.59,0.59-0.59h3.43c0.32,0,0.59,0.26,0.59,0.59C303.39,177.67,303.12,177.93,302.8,177.93z M294.8,177.93h-3.43
						c-0.32,0-0.59-0.26-0.59-0.59c0-0.32,0.26-0.59,0.59-0.59h3.43c0.32,0,0.59,0.26,0.59,0.59
						C295.39,177.67,295.13,177.93,294.8,177.93z M286.8,177.93h-3.43c-0.32,0-0.59-0.26-0.59-0.59c0-0.32,0.26-0.59,0.59-0.59h3.43
						c0.32,0,0.59,0.26,0.59,0.59C287.39,177.67,287.13,177.93,286.8,177.93z M278.81,177.93h-3.43c-0.32,0-0.59-0.26-0.59-0.59
						c0-0.32,0.26-0.59,0.59-0.59h3.43c0.32,0,0.59,0.26,0.59,0.59C279.39,177.67,279.13,177.93,278.81,177.93z M270.81,177.93
						h-3.43c-0.32,0-0.59-0.26-0.59-0.59c0-0.32,0.26-0.59,0.59-0.59h3.43c0.32,0,0.59,0.26,0.59,0.59
						C271.39,177.67,271.13,177.93,270.81,177.93z M262.81,177.93h-3.43c-0.32,0-0.59-0.26-0.59-0.59c0-0.32,0.26-0.59,0.59-0.59
						h3.43c0.32,0,0.59,0.26,0.59,0.59C263.39,177.67,263.13,177.93,262.81,177.93z M254.81,177.93h-3.43
						c-0.32,0-0.59-0.26-0.59-0.59c0-0.32,0.26-0.59,0.59-0.59h3.43c0.32,0,0.59,0.26,0.59,0.59
						C255.4,177.67,255.13,177.93,254.81,177.93z M246.81,177.93h-3.43c-0.32,0-0.59-0.26-0.59-0.59c0-0.32,0.26-0.59,0.59-0.59
						h3.43c0.32,0,0.59,0.26,0.59,0.59C247.4,177.67,247.13,177.93,246.81,177.93z M238.81,177.93h-3.43
						c-0.32,0-0.59-0.26-0.59-0.59c0-0.32,0.26-0.59,0.59-0.59h3.43c0.32,0,0.59,0.26,0.59,0.59
						C239.4,177.67,239.14,177.93,238.81,177.93z M230.81,177.93h-3.43c-0.32,0-0.59-0.26-0.59-0.59c0-0.32,0.26-0.59,0.59-0.59
						h3.43c0.32,0,0.59,0.26,0.59,0.59C231.4,177.67,231.14,177.93,230.81,177.93z M222.81,177.93h-3.43
						c-0.32,0-0.59-0.26-0.59-0.59c0-0.32,0.26-0.59,0.59-0.59h3.43c0.32,0,0.59,0.26,0.59,0.59
						C223.4,177.67,223.14,177.93,222.81,177.93z M214.82,177.93h-3.43c-0.32,0-0.59-0.26-0.59-0.59c0-0.32,0.26-0.59,0.59-0.59
						h3.43c0.32,0,0.59,0.26,0.59,0.59C215.4,177.67,215.14,177.93,214.82,177.93z"/>
					<path class="st1" d="M206.82,177.93h-1.76c-0.32,0-0.59-0.26-0.59-0.59c0-0.32,0.26-0.59,0.59-0.59h1.76
						c0.32,0,0.59,0.26,0.59,0.59C207.4,177.67,207.14,177.93,206.82,177.93z"/>
				</g>
				
					<ellipse transform="matrix(0.2298 -0.9732 0.9732 0.2298 71.4342 444.9456)" class="st1" cx="316.82" cy="177.34" rx="2.55" ry="2.55"/>
				<path class="st1" d="M198.49,180.1l16.85-2.27c0.72-0.1,0.72-1.13,0-1.23l-16.85-2.27c-0.37-0.05-0.7,0.24-0.7,0.62v4.55
					C197.78,179.86,198.12,180.15,198.49,180.1z"/>
			</g>
		</g>
		<path class="st2" d="M172.09,260.76l13.31,10.58c0.57,0.45,1.32-0.27,0.89-0.85l-10.03-13.73c-0.22-0.3-0.66-0.34-0.93-0.08
			l-3.28,3.15C171.78,260.09,171.8,260.53,172.09,260.76z"/>
		<path class="st0" d="M172.09,97.06l13.31-10.58c0.57-0.45,1.32,0.27,0.89,0.85l-10.03,13.73c-0.22,0.3-0.66,0.34-0.93,0.08
			l-3.28-3.15C171.78,97.73,171.8,97.29,172.09,97.06z"/>
		<g>
			<g>
				<text transform="matrix(1 0 0 1 24.1147 168.0538)"><tspan x="0" y="0" class="st9 st10 st11">PRODUCTION </tspan><tspan x="17.62" y="26.73" class="st9 st10 st11">CAPACITY</tspan></text>
			</g>
		</g>
		<g>
			<g>
				<g>
					<g>
						<text transform="matrix(1 0 0 1 362.1401 34.6417)" class="st0 st10 st12">Circular Knit</text>
					</g>
				</g>
			</g>
			<g>
				<text transform="matrix(1 0 0 1 361.9395 56.876)"><tspan x="0" y="0" class="st13 st14 st15">In-house capacity - </tspan><tspan x="104.79" y="0" class="st13 st16 st15">4.2 Million Pcs</tspan><tspan x="181.25" y="0" class="st13 st14 st15"> / per year</tspan><tspan x="0" y="19.5" class="st13 st14 st15">Outsourcing capacity - </tspan><tspan x="124.77" y="19.5" class="st13 st16 st15">10.2 Million Pcs </tspan><tspan x="210.65" y="19.5" class="st13 st14 st15">/ per year</tspan></text>
			</g>
		</g>
		<g>
			<g>
				<g>
					<g>
						<text transform="matrix(1 0 0 1 362.1401 293.0615)" class="st2 st10 st12">woven</text>
					</g>
				</g>
			</g>
			<g>
				<text transform="matrix(1 0 0 1 361.9395 315.2955)"><tspan x="0" y="0" class="st13 st14 st15">In-house capacity -</tspan><tspan x="102.04" y="0" class="st13 st16 st15"> 2.4 Million Pcs </tspan><tspan x="184" y="0" class="st13 st14 st15">/ per year</tspan><tspan x="0" y="19.5" class="st13 st14 st15">Outsourcing capacity -</tspan><tspan x="122.02" y="19.5" class="st13 st16 st15"> 8 Million Pcs </tspan><tspan x="194.62" y="19.5" class="st13 st14 st15">/ per year</tspan></text>
			</g>
		</g>
		<g>
			<g>
				<g>
					<g>
						<text transform="matrix(1 0 0 1 439.6641 164.1958)" class="st1 st10 st12">flat Knit (Sweater)</text>
					</g>
				</g>
			</g>
			<g>
				<text transform="matrix(1 0 0 1 439.4636 186.4303)"><tspan x="0" y="0" class="st13 st14 st15">In-house capacity - </tspan><tspan x="104.79" y="0" class="st13 st16 st15">1.4 Million Pcs </tspan><tspan x="184" y="0" class="st13 st14 st15">/ per year</tspan><tspan x="0" y="19.5" class="st13 st14 st15">Outsourcing capacity -</tspan><tspan x="122.02" y="19.5" class="st13 st16 st15"> 4.5 Million Pcs </tspan><tspan x="203.98" y="19.5" class="st13 st14 st15">/ per year</tspan></text>
			</g>
		</g>
		<g>
			<text transform="matrix(1 0 0 1 279.3159 37.3419)"><tspan x="0" y="0" class="st0 st10 st17">14.4 </tspan><tspan x="-11.68" y="14.4" class="st0 st10 st17">Million</tspan><tspan x="-15.03" y="28.8" class="st0 st10 st17">Pcs/Year</tspan></text>
		</g>
		<g>
			<text transform="matrix(1 0 0 1 364.0945 166.8955)"><tspan x="0" y="0" class="st1 st10 st17">5.9</tspan><tspan x="-14.76" y="14.4" class="st1 st10 st17">Million</tspan><tspan x="-18.11" y="28.8" class="st1 st10 st17">Pcs/Year</tspan></text>
		</g>
		<g>
			<text transform="matrix(1 0 0 1 279.3159 295.7617)"><tspan x="0" y="0" class="st2 st10 st17">10.4 </tspan><tspan x="-11.68" y="14.4" class="st2 st10 st17">Million</tspan><tspan x="-15.03" y="28.8" class="st2 st10 st17">Pcs/Year</tspan></text>
		</g>
	</g>
</g>
</svg>
